<?xml version="1.0" encoding="UTF-8"?>
<!DOCTYPE svg PUBLIC "-//W3C//DTD SVG 1.1//EN" "http://www.w3.org/Graphics/SVG/1.1/DTD/svg11.dtd">
<svg xmlns="http://www.w3.org/2000/svg" version="1.1" width="1280px" height="3840px" style="shape-rendering:geometricPrecision; text-rendering:geometricPrecision; image-rendering:optimizeQuality; fill-rule:evenodd; clip-rule:evenodd" xmlns:xlink="http://www.w3.org/1999/xlink">
<g><path style="opacity:0.981" fill="#fefffe" d="M 205.5,88.5 C 239.604,88.456 261.104,104.789 270,137.5C 270.5,150.829 270.667,164.163 270.5,177.5C 277.841,177.334 285.174,177.5 292.5,178C 297.062,179.627 299.895,182.794 301,187.5C 301.982,226.56 301.649,265.56 300,304.5C 297.736,307.433 294.902,309.6 291.5,311C 239.167,311.667 186.833,311.667 134.5,311C 129.765,309.932 126.598,307.099 125,302.5C 123.864,283.041 123.364,263.541 123.5,244C 123.364,224.459 123.864,204.959 125,185.5C 126.833,182.333 129.333,179.833 132.5,178C 139.492,177.5 146.492,177.334 153.5,177.5C 153.333,165.495 153.5,153.495 154,141.5C 157.393,117.761 170.226,101.261 192.5,92C 196.919,90.6476 201.252,89.481 205.5,88.5 Z M 206.5,111.5 C 228.532,111.05 242.365,121.383 248,142.5C 248.5,154.162 248.667,165.829 248.5,177.5C 224.5,177.5 200.5,177.5 176.5,177.5C 176.333,164.829 176.5,152.162 177,139.5C 181.858,124.806 191.691,115.473 206.5,111.5 Z"/></g>
<g><path style="opacity:0.93" fill="#fefffe" d="M 1121.5,496.5 C 1162.84,491.36 1185.67,509.36 1190,550.5C 1190.96,581.39 1184.62,610.723 1171,638.5C 1150.97,680.413 1122.14,714.913 1084.5,742C 1064.77,756.077 1042.77,763.91 1018.5,765.5C 986.559,764.731 968.726,748.397 965,716.5C 962.359,683.036 968.693,651.37 984,621.5C 1002.38,582.781 1028.55,550.281 1062.5,524C 1080.25,510.483 1099.92,501.317 1121.5,496.5 Z M 1114.5,542.5 C 1132.76,543.252 1143.92,552.585 1148,570.5C 1149.62,588.092 1146.95,605.092 1140,621.5C 1124.96,656.457 1101.79,684.624 1070.5,706C 1058.65,713.841 1045.65,717.841 1031.5,718C 1013.46,711.962 1004.46,699.295 1004.5,680C 1006.73,657.647 1013.56,636.814 1025,617.5C 1040.74,590.429 1061.9,568.595 1088.5,552C 1096.85,547.72 1105.52,544.553 1114.5,542.5 Z"/></g>
<g><path style="opacity:0.934" fill="#fefffe" d="M 616.5,514.5 C 618.857,514.337 621.19,514.503 623.5,515C 654.509,533.343 678.342,558.51 695,590.5C 699.407,601.46 702.24,612.793 703.5,624.5C 701.856,624.714 700.356,624.38 699,623.5C 689.912,610.324 680.579,597.324 671,584.5C 656.472,567.799 639.972,553.465 621.5,541.5C 620.522,541.977 619.689,542.643 619,543.5C 614.75,551.258 611.083,559.258 608,567.5C 603.664,583.511 599.331,599.511 595,615.5C 590.096,642.612 588.262,669.945 589.5,697.5C 589.565,715.845 589.899,734.178 590.5,752.5C 583.319,752.663 576.319,751.663 569.5,749.5C 566.44,734.505 564.773,719.338 564.5,704C 561.649,644.211 574.149,588.044 602,535.5C 606.664,528.344 611.497,521.344 616.5,514.5 Z"/></g>
<g><path style="opacity:0.754" fill="#fefffe" d="M 204.5,520.5 C 217.775,519.757 230.775,520.923 243.5,524C 247.133,526.311 250.966,528.144 255,529.5C 255.808,531.579 255.641,533.579 254.5,535.5C 244.631,537.791 234.631,539.624 224.5,541C 203.173,549.422 183.173,560.089 164.5,573C 162.5,573.667 160.5,573.667 158.5,573C 153.199,567.036 148.699,560.536 145,553.5C 144.289,551.101 144.456,548.768 145.5,546.5C 149.894,543.206 154.56,540.372 159.5,538C 160.167,537 160.833,536 161.5,535C 174.702,528.141 188.702,523.808 203.5,522C 204.056,521.617 204.389,521.117 204.5,520.5 Z M 192.5,532.5 C 187.937,539.235 182.437,545.235 176,550.5C 175.517,551.448 175.351,552.448 175.5,553.5C 174.448,553.351 173.448,553.517 172.5,554C 169.299,557.536 165.799,560.703 162,563.5C 158.796,559.593 155.962,555.426 153.5,551C 162.015,545.553 170.682,540.387 179.5,535.5C 183.652,533.712 187.986,532.712 192.5,532.5 Z"/></g>
<g><path style="opacity:0.806" fill="#fefffe" d="M 239.5,547.5 C 252.27,545.948 263.437,549.281 273,557.5C 273.667,559.167 273.667,560.833 273,562.5C 270.65,565.878 268.483,569.378 266.5,573C 262.742,581.846 258.742,590.512 254.5,599C 252.5,599.667 250.5,599.667 248.5,599C 234.554,585.78 217.887,579.28 198.5,579.5C 187.824,580.573 177.158,580.573 166.5,579.5C 169.994,576.176 173.661,573.009 177.5,570C 178.448,569.517 179.448,569.351 180.5,569.5C 180.281,568.325 180.614,567.325 181.5,566.5C 199.526,555.835 218.859,549.501 239.5,547.5 Z M 187.5,573.5 C 201.614,563.788 217.28,557.955 234.5,556C 221.14,567.766 205.474,573.6 187.5,573.5 Z"/></g>
<g><path style="opacity:0.832" fill="#fefffe" d="M 97.5,604.5 C 122.427,602.81 146.76,605.643 170.5,613C 182.371,618.426 193.371,625.093 203.5,633C 208.969,638.308 213.136,644.475 216,651.5C 217.587,646.653 219.92,642.32 223,638.5C 231.033,630.838 240.533,625.671 251.5,623C 274.815,619.792 298.148,619.792 321.5,623C 326.78,623.368 328.78,626.202 327.5,631.5C 318.443,629.771 309.276,628.771 300,628.5C 290.208,628.328 280.708,629.828 271.5,633C 264.306,635.729 257.639,639.396 251.5,644C 243.579,650.577 236.079,657.744 229,665.5C 227.379,667.624 225.546,669.624 223.5,671.5C 222.913,673.273 222.58,675.106 222.5,677C 225.135,699.446 228.969,721.613 234,743.5C 234.821,746.554 234.655,749.554 233.5,752.5C 224.181,757.826 214.515,762.659 204.5,767C 202.527,767.495 200.527,767.662 198.5,767.5C 202.53,740.204 206.363,712.87 210,685.5C 210.944,684.737 211.444,683.737 211.5,682.5C 209.578,679.254 207.745,675.921 206,672.5C 197.117,663.149 188.617,653.649 180.5,644C 173.688,639.085 167.021,633.919 160.5,628.5C 146.234,620.93 131.068,615.93 115,613.5C 104.388,612.134 93.888,611.801 83.5,612.5C 83.2011,610.396 83.5344,608.396 84.5,606.5C 88.9669,605.886 93.3002,605.22 97.5,604.5 Z"/></g>
<g><path style="opacity:0.961" fill="#fefffe" d="M 647.5,611.5 C 648.873,611.343 650.207,611.51 651.5,612C 667.927,629.175 674.761,649.675 672,673.5C 667.942,689.88 657.775,695.713 641.5,691C 638.833,689.667 636.167,688.333 633.5,687C 631.314,683.795 629.814,680.295 629,676.5C 626.166,652.179 632.333,630.513 647.5,611.5 Z"/></g>
<g><path style="opacity:0.666" fill="#fefffe" d="M 131.5,658.5 C 147.543,657.267 163.209,659.1 178.5,664C 180.828,665.324 183.161,666.657 185.5,668C 187.311,670.978 189.644,673.478 192.5,675.5C 193.647,677.765 193.814,680.098 193,682.5C 178.158,694.051 161.325,697.885 142.5,694C 130.972,691.685 122.306,685.518 116.5,675.5C 112.533,674.528 108.533,673.695 104.5,673C 103.034,672.365 101.7,671.531 100.5,670.5C 99.5108,666.893 99.1774,663.226 99.5,659.5C 105.454,658.965 109.454,661.465 111.5,667C 116.104,668.552 119.437,667.218 121.5,663C 125.015,661.586 128.349,660.086 131.5,658.5 Z M 141.5,663.5 C 145.154,663.942 148.821,664.276 152.5,664.5C 151.908,667.127 151.575,669.794 151.5,672.5C 142.922,672.705 134.589,671.538 126.5,669C 131.308,666.287 136.308,664.454 141.5,663.5 Z M 158.5,666.5 C 164.242,667.235 169.909,668.402 175.5,670C 177.605,671.455 179.605,672.955 181.5,674.5C 181.167,674.833 180.833,675.167 180.5,675.5C 172.896,674.339 165.23,673.672 157.5,673.5C 157.993,671.194 158.326,668.861 158.5,666.5 Z M 130.5,679.5 C 136.833,679.5 143.167,679.5 149.5,679.5C 148.893,682.715 147.726,685.715 146,688.5C 141.563,686.606 137.063,684.772 132.5,683C 131.695,681.887 131.028,680.721 130.5,679.5 Z M 156.5,679.5 C 164.055,679.762 171.389,680.928 178.5,683C 171.249,687.594 163.249,689.761 154.5,689.5C 154.788,686.061 155.454,682.728 156.5,679.5 Z"/></g>
<g><path style="opacity:0.599" fill="#fefffe" d="M 284.5,662.5 C 285.5,662.5 286.5,662.5 287.5,662.5C 287.049,670.881 287.049,679.214 287.5,687.5C 285.5,687.5 283.5,687.5 281.5,687.5C 280.859,678.891 281.859,670.558 284.5,662.5 Z"/></g>
<g><path style="opacity:0.505" fill="#fefffe" d="M 239.5,672.5 C 241.262,672.357 242.929,672.691 244.5,673.5C 248.186,677.352 251.686,681.352 255,685.5C 255.497,687.81 255.663,690.143 255.5,692.5C 254.127,692.657 252.793,692.49 251.5,692C 246.917,688.088 243.083,683.588 240,678.5C 239.505,676.527 239.338,674.527 239.5,672.5 Z"/></g>
<g><path style="opacity:0.503" fill="#fefffe" d="M 315.5,672.5 C 317.167,672.5 318.833,672.5 320.5,672.5C 320.799,674.604 320.466,676.604 319.5,678.5C 316.289,682.969 313.289,687.635 310.5,692.5C 308.604,693.466 306.604,693.799 304.5,693.5C 304.351,690.393 304.851,687.393 306,684.5C 309.416,680.652 312.583,676.652 315.5,672.5 Z"/></g>
<g><path style="opacity:0.785" fill="#fefffe" d="M 278.5,694.5 C 285.355,693.241 290.855,695.241 295,700.5C 296.086,708.115 292.919,713.282 285.5,716C 281.091,717.262 277.257,716.428 274,713.5C 273.171,708.136 273.337,702.802 274.5,697.5C 275.799,696.306 277.132,695.306 278.5,694.5 Z"/></g>
<g><path style="opacity:0.539" fill="#fefffe" d="M 300.5,720.5 C 302.308,720.491 303.975,720.991 305.5,722C 308.323,724.988 311.323,727.822 314.5,730.5C 315.474,732.743 315.808,735.076 315.5,737.5C 313.396,737.799 311.396,737.466 309.5,736.5C 307.47,733.472 304.803,731.139 301.5,729.5C 300.593,726.579 300.26,723.579 300.5,720.5 Z"/></g>
<g><path style="opacity:0.62" fill="#fefffe" d="M 280.5,721.5 C 282.011,722.502 283.678,723.169 285.5,723.5C 285.296,729.76 285.963,735.927 287.5,742C 286.263,745.043 283.93,746.21 280.5,745.5C 279.33,737.472 279.33,729.472 280.5,721.5 Z"/></g>
<g><path style="opacity:0.496" fill="#fefffe" d="M 265.5,723.5 C 270.69,722.935 271.69,724.602 268.5,728.5C 263.461,733.537 258.794,738.871 254.5,744.5C 252.591,745.348 250.591,745.682 248.5,745.5C 248.248,742.68 248.748,740.014 250,737.5C 253.158,733.431 256.658,729.597 260.5,726C 262.491,725.626 264.158,724.793 265.5,723.5 Z"/></g>
<g><path style="opacity:0.955" fill="#fefffe" d="M 1134.5,940.5 C 1149.77,951.27 1162.94,964.27 1174,979.5C 1181.06,988.629 1185.06,998.962 1186,1010.5C 1187.3,1033.49 1185.3,1056.15 1180,1078.5C 1163.5,1054.83 1147,1031.17 1130.5,1007.5C 1129.83,1007.17 1129.17,1006.83 1128.5,1006.5C 1112.08,1009.18 1095.74,1012.18 1079.5,1015.5C 1101.67,1065.83 1123.83,1116.17 1146,1166.5C 1149.14,1179.05 1144.31,1184.55 1131.5,1183C 1129.71,1182.22 1128.21,1181.05 1127,1179.5C 1106.67,1133.5 1086.33,1087.5 1066,1041.5C 1046.33,1086.5 1026.67,1131.5 1007,1176.5C 1002.89,1182.6 997.395,1184.1 990.5,1181C 985.37,1176.78 984.204,1171.62 987,1165.5C 1008.44,1117.62 1029.61,1069.62 1050.5,1021.5C 1049.67,1021.17 1048.83,1020.83 1048,1020.5C 1016.82,1025.77 985.654,1031.1 954.5,1036.5C 950.751,1036.25 948.917,1034.25 949,1030.5C 947.779,1024.86 947.113,1019.19 947,1013.5C 947.903,1012.3 949.069,1011.47 950.5,1011C 1004.53,1001.61 1058.53,992.106 1112.5,982.5C 1106.99,973.021 1101.99,963.354 1097.5,953.5C 1110.12,949.738 1122.46,945.405 1134.5,940.5 Z"/></g>
<g><path style="opacity:0.928" fill="#fefffe" d="M 111.5,960.5 C 126.509,960.01 132.009,967.01 128,981.5C 122.509,987.995 116.009,989.495 108.5,986C 102.826,981.515 100.993,975.681 103,968.5C 105.098,964.897 107.932,962.23 111.5,960.5 Z"/></g>
<g><path style="opacity:0.914" fill="#fefffe" d="M 301.5,960.5 C 317.95,959.772 323.45,967.105 318,982.5C 311.748,988.822 304.915,989.656 297.5,985C 290.117,975.413 291.451,967.247 301.5,960.5 Z"/></g>
<g><path style="opacity:0.964" fill="#fefffe" d="M 563.5,962.5 C 565.74,963.568 567.574,965.234 569,967.5C 581.5,986 594,1004.5 606.5,1023C 578.827,1023.83 551.161,1023.67 523.5,1022.5C 537.251,1002.75 550.585,982.754 563.5,962.5 Z"/></g>
<g><path style="opacity:0.96" fill="#fefffe" d="M 597.5,963.5 C 625.003,962.171 652.67,962.171 680.5,963.5C 667.315,983.884 653.648,1003.88 639.5,1023.5C 625.085,1003.76 611.085,983.759 597.5,963.5 Z"/></g>
<g><path style="opacity:0.963" fill="#fefffe" d="M 712.5,962.5 C 714.371,962.859 715.871,963.859 717,965.5C 729.833,984.5 742.667,1003.5 755.5,1022.5C 727.839,1023.67 700.173,1023.83 672.5,1023C 686.227,1003.03 699.56,982.867 712.5,962.5 Z"/></g>
<g><path style="opacity:0.962" fill="#fefffe" d="M 209.5,968.5 C 212.97,967.875 215.804,968.875 218,971.5C 223.124,996.122 228.624,1020.62 234.5,1045C 259.537,1050.21 284.371,1056.04 309,1062.5C 311.138,1065.75 310.638,1068.58 307.5,1071C 283.17,1076.57 258.837,1082.07 234.5,1087.5C 228.811,1111.78 223.311,1136.11 218,1160.5C 217.242,1162.91 215.575,1163.91 213,1163.5C 210.966,1163.65 209.299,1162.98 208,1161.5C 202.643,1136.74 196.976,1112.07 191,1087.5C 166.869,1082.01 142.703,1076.51 118.5,1071C 114.259,1067.21 114.592,1063.87 119.5,1061C 143.592,1055.81 167.592,1050.31 191.5,1044.5C 196.856,1021.22 202.023,997.887 207,974.5C 207.573,972.359 208.406,970.359 209.5,968.5 Z"/></g>
<g><path style="opacity:0.913" fill="#fefffe" d="M 154.5,996.5 C 169.28,998.116 173.78,1005.78 168,1019.5C 160.013,1026.46 152.346,1026.13 145,1018.5C 140.368,1007.62 143.535,1000.29 154.5,996.5 Z"/></g>
<g><path style="opacity:0.914" fill="#fefffe" d="M 263.5,996.5 C 278.263,998.103 282.763,1005.77 277,1019.5C 269.013,1026.46 261.346,1026.13 254,1018.5C 249.82,1007.87 252.986,1000.54 263.5,996.5 Z"/></g>
<g><path style="opacity:0.98" fill="#fefffe" d="M 523.5,1050.5 C 600.836,1050.17 678.17,1050.5 755.5,1051.5C 717.181,1098.48 678.514,1145.15 639.5,1191.5C 600.061,1145.07 561.395,1098.07 523.5,1050.5 Z"/></g>
<g><path style="opacity:0.91" fill="#fefffe" d="M 152.5,1103.5 C 167.532,1103.03 173.032,1110.03 169,1124.5C 160.179,1134.08 151.846,1133.75 144,1123.5C 141.116,1114.34 143.95,1107.67 152.5,1103.5 Z"/></g>
<g><path style="opacity:0.914" fill="#fefffe" d="M 261.5,1103.5 C 276.555,1103.05 282.055,1110.05 278,1124.5C 271.864,1132.13 264.697,1133.29 256.5,1128C 249.394,1118.03 251.061,1109.86 261.5,1103.5 Z"/></g>
<g><path style="opacity:0.929" fill="#fefffe" d="M 110.5,1140.5 C 126.925,1139.75 132.425,1147.08 127,1162.5C 121.656,1167.65 115.489,1168.82 108.5,1166C 102.829,1161.47 100.996,1155.64 103,1148.5C 104.69,1144.98 107.19,1142.31 110.5,1140.5 Z"/></g>
<g><path style="opacity:0.917" fill="#fefffe" d="M 301.5,1140.5 C 317.89,1139.72 323.39,1147.05 318,1162.5C 311.656,1168.28 304.823,1168.95 297.5,1164.5C 290.222,1155.02 291.555,1147.02 301.5,1140.5 Z"/></g>
<g><path style="opacity:0.914" fill="#fefffe" d="M 269.5,1339.5 C 277.441,1339.52 284.274,1342.19 290,1347.5C 290.667,1349.17 290.667,1350.83 290,1352.5C 285.689,1360.95 281.523,1369.45 277.5,1378C 271.971,1378.82 267.471,1376.99 264,1372.5C 263.446,1362.48 263.779,1352.48 265,1342.5C 266.409,1341.22 267.909,1340.22 269.5,1339.5 Z"/></g>
<g><path style="opacity:0.958" fill="#fefffe" d="M 1016.5,1361.5 C 1049.5,1361.5 1082.5,1361.5 1115.5,1361.5C 1115.5,1380.17 1115.5,1398.83 1115.5,1417.5C 1105.5,1417.5 1095.5,1417.5 1085.5,1417.5C 1085.5,1408.17 1085.5,1398.83 1085.5,1389.5C 1072.5,1389.5 1059.5,1389.5 1046.5,1389.5C 1046.5,1398.83 1046.5,1408.17 1046.5,1417.5C 1036.5,1417.5 1026.5,1417.5 1016.5,1417.5C 1016.5,1398.83 1016.5,1380.17 1016.5,1361.5 Z"/></g>
<g><path style="opacity:0.981" fill="#fefffe" d="M 198.5,1377.5 C 208.172,1377.33 217.839,1377.5 227.5,1378C 228.624,1378.25 229.624,1378.75 230.5,1379.5C 224.309,1392.99 226.975,1404.16 238.5,1413C 244.809,1416.1 251.309,1418.6 258,1420.5C 258.667,1421.83 258.667,1423.17 258,1424.5C 248.69,1436.72 249.524,1448.22 260.5,1459C 262.717,1460.28 265.051,1461.28 267.5,1462C 274.758,1462.2 281.925,1462.36 289,1462.5C 283.458,1494.46 296.625,1507.46 328.5,1501.5C 323.705,1547.62 300.372,1580.45 258.5,1600C 207.331,1618.5 162.831,1608.34 125,1569.5C 96.2981,1533.29 89.6314,1493.29 105,1449.5C 123.574,1409.09 154.741,1385.09 198.5,1377.5 Z M 208.5,1453.5 C 230.46,1453.31 244.626,1463.64 251,1484.5C 253.771,1508.05 243.938,1523.55 221.5,1531C 195.66,1533.8 179.826,1522.64 174,1497.5C 173.804,1473.52 185.304,1458.85 208.5,1453.5 Z"/></g>
<g><path style="opacity:0.977" fill="#fefffe" d="M 719.5,1377.5 C 729.486,1377.12 739.153,1378.62 748.5,1382C 752.598,1386.28 754.765,1391.45 755,1397.5C 756.852,1412.87 754.519,1427.54 748,1441.5C 734.667,1463.5 721.333,1485.5 708,1507.5C 708.447,1532.83 708.78,1558.16 709,1583.5C 697.653,1595.01 686.153,1606.35 674.5,1617.5C 621.5,1565.17 568.833,1512.5 516.5,1459.5C 527.652,1447.85 538.986,1436.35 550.5,1425C 576.159,1425.45 601.826,1425.45 627.5,1425C 648.833,1412 670.167,1399 691.5,1386C 700.318,1381 709.651,1378.17 719.5,1377.5 Z M 708.5,1401.5 C 716.674,1408.84 724.341,1416.67 731.5,1425C 718.466,1446.9 705.299,1468.73 692,1490.5C 675.195,1474.7 658.695,1458.53 642.5,1442C 664.672,1428.64 686.672,1415.14 708.5,1401.5 Z"/></g>
<g><path style="opacity:0.94" fill="#fefffe" d="M 308.5,1380.5 C 313.644,1379.2 317.144,1380.86 319,1385.5C 320.941,1396.15 320.941,1406.82 319,1417.5C 317.52,1420.66 315.02,1422.5 311.5,1423C 305.354,1425.43 299.521,1424.93 294,1421.5C 285,1402.62 289.833,1388.96 308.5,1380.5 Z"/></g>
<g><path style="opacity:0.974" fill="#fefffe" d="M 992.5,1443.5 C 1041.5,1443.33 1090.5,1443.5 1139.5,1444C 1146.03,1463.27 1152.37,1482.6 1158.5,1502C 1097.17,1502.5 1035.83,1502.67 974.5,1502.5C 980.095,1482.71 986.095,1463.05 992.5,1443.5 Z"/></g>
<g><path style="opacity:0.924" fill="#fefffe" d="M 541.5,1524.5 C 542.552,1524.35 543.552,1524.52 544.5,1525C 552.348,1532.68 560.015,1540.51 567.5,1548.5C 562.279,1553.21 556.612,1557.38 550.5,1561C 539.318,1566.95 527.818,1572.11 516,1576.5C 521.348,1557.62 529.848,1540.29 541.5,1524.5 Z"/></g>
<g><path style="opacity:0.979" fill="#fefffe" d="M 955.5,1528.5 C 1029.17,1528.5 1102.83,1528.5 1176.5,1528.5C 1182.5,1549.17 1188.5,1569.83 1194.5,1590.5C 1108.83,1590.83 1023.16,1590.5 937.5,1589.5C 943.97,1569.28 949.97,1548.95 955.5,1528.5 Z"/></g>
<g><path style="opacity:0.926" fill="#fefffe" d="M 583.5,1565.5 C 592.62,1572.79 600.953,1580.95 608.5,1590C 604.228,1594.14 599.561,1597.81 594.5,1601C 582.413,1608.05 569.746,1613.39 556.5,1617C 563.031,1598.43 572.031,1581.27 583.5,1565.5 Z"/></g>
<g><path style="opacity:0.966" fill="#fefffe" d="M 1049.5,1792.5 C 1058.19,1791.98 1066.69,1792.98 1075,1795.5C 1079.45,1793.79 1083.95,1793.46 1088.5,1794.5C 1095.83,1811.83 1103.17,1829.17 1110.5,1846.5C 1067.5,1847.67 1024.5,1847.83 981.5,1847C 976.623,1844.61 973.957,1840.61 973.5,1835C 974.06,1829.87 976.393,1825.87 980.5,1823C 998.5,1822.67 1016.5,1822.33 1034.5,1822C 1039.11,1811.94 1044.11,1802.1 1049.5,1792.5 Z"/></g>
<g><path style="opacity:0.978" fill="#fefffe" d="M 208.5,1795.5 C 250.399,1795.79 284.399,1812.12 310.5,1844.5C 300.901,1876.47 290.401,1908.13 279,1939.5C 269.966,1956.54 257.966,1971.21 243,1983.5C 238.425,1995.01 242.258,2002.01 254.5,2004.5C 257.324,2004.17 259.991,2003.34 262.5,2002C 276.196,1989.98 288.029,1976.48 298,1961.5C 301.917,1954.08 305.25,1946.41 308,1938.5C 315.014,1918.12 322.014,1897.79 329,1877.5C 344.211,1924.58 335.878,1966.92 304,2004.5C 265.809,2042.22 220.976,2053.05 169.5,2037C 118.019,2015.07 90.6854,1976.07 87.5,1920C 90.2215,1867.2 115.221,1829.2 162.5,1806C 177.404,1799.99 192.737,1796.49 208.5,1795.5 Z M 206.5,1872.5 C 233.7,1871.88 251.2,1884.54 259,1910.5C 261.647,1931.7 254.147,1948.2 236.5,1960C 211.174,1971.87 190.007,1966.7 173,1944.5C 159.836,1917.32 165.67,1895.15 190.5,1878C 195.74,1875.53 201.073,1873.7 206.5,1872.5 Z"/></g>
<g><path style="opacity:0.974" fill="#fefffe" d="M 628.5,1806.5 C 668.826,1804.67 701.826,1819.17 727.5,1850C 658.105,1869.19 591.439,1895.35 527.5,1928.5C 525.049,1879.89 544.716,1843.39 586.5,1819C 599.886,1812.33 613.886,1808.16 628.5,1806.5 Z"/></g>
<g><path style="opacity:0.982" fill="#fefffe" d="M 763.5,1870.5 C 770.257,1870.12 776.924,1870.62 783.5,1872C 784.804,1872.8 785.471,1873.97 785.5,1875.5C 783.956,1880.08 781.289,1883.91 777.5,1887C 769.434,1893.45 760.934,1899.28 752,1904.5C 755.12,1956.94 733.953,1995.77 688.5,2021C 643.252,2040.07 601.585,2034.07 563.5,2003C 557.462,1997.56 552.129,1991.56 547.5,1985C 536.915,1986.48 526.249,1987.65 515.5,1988.5C 512.5,1988.33 509.5,1988.17 506.5,1988C 500.769,1985.91 499.936,1982.41 504,1977.5C 516.53,1966.15 530.363,1956.65 545.5,1949C 614.688,1912.77 687.355,1886.61 763.5,1870.5 Z"/></g>
<g><path style="opacity:0.979" fill="#fefffe" d="M 1010.5,1873.5 C 1063.5,1873.33 1116.5,1873.5 1169.5,1874C 1176.5,1875.14 1179.83,1879.31 1179.5,1886.5C 1179.79,1893.11 1176.79,1897.28 1170.5,1899C 1160.5,1899.33 1150.5,1899.67 1140.5,1900C 1159.13,1933.42 1177.63,1966.92 1196,2000.5C 1197.41,2002.65 1198.24,2004.98 1198.5,2007.5C 1112.5,2007.5 1026.5,2007.5 940.5,2007.5C 941.092,2004.31 942.259,2001.31 944,1998.5C 966.701,1957.1 988.868,1915.43 1010.5,1873.5 Z"/></g>
<g><path style="opacity:0.909" fill="#fefffe" d="M 209.5,1905.5 C 217.292,1904.49 222.792,1907.49 226,1914.5C 227.61,1929.44 221.11,1935.27 206.5,1932C 199.601,1927.52 197.435,1921.35 200,1913.5C 202.161,1909.5 205.328,1906.83 209.5,1905.5 Z"/></g>
<g><path style="opacity:0.98" fill="#fefffe" d="M 134.5,2202.5 C 136.527,2202.34 138.527,2202.5 140.5,2203C 176.189,2228.86 204.189,2261.36 224.5,2300.5C 240.307,2291.26 256.64,2283.1 273.5,2276C 281.582,2272.45 284.749,2274.95 283,2283.5C 275.816,2301.01 267.316,2317.85 257.5,2334C 297.984,2354.48 330.984,2383.48 356.5,2421C 356.097,2422.47 355.43,2423.81 354.5,2425C 305.556,2440.92 257.889,2437.59 211.5,2415C 204.586,2411.29 197.752,2407.46 191,2403.5C 179.278,2421.89 166.778,2439.72 153.5,2457C 149.793,2458 146.459,2457.33 143.5,2455C 130,2441.5 116.5,2428 103,2414.5C 99.513,2410.12 99.6797,2405.96 103.5,2402C 121.021,2391.07 138.021,2379.41 154.5,2367C 123.524,2317.98 115.691,2265.48 131,2209.5C 132.18,2207.14 133.347,2204.81 134.5,2202.5 Z"/></g>
<g><path style="opacity:0.979" fill="#fefffe" d="M 994.5,2215.5 C 1008.15,2231.34 1020.98,2248.01 1033,2265.5C 1033.33,2283.83 1033.67,2302.17 1034,2320.5C 1045.84,2312.25 1057.84,2304.25 1070,2296.5C 1082.33,2304.5 1094.67,2312.5 1107,2320.5C 1119.33,2312.5 1131.67,2304.5 1144,2296.5C 1157.32,2304.33 1170.32,2312.66 1183,2321.5C 1183.5,2365.5 1183.67,2409.5 1183.5,2453.5C 1154.83,2453.5 1126.17,2453.5 1097.5,2453.5C 1097.67,2437.16 1097.5,2420.83 1097,2404.5C 1093.05,2391.43 1084.21,2384.43 1070.5,2383.5C 1054.85,2384.65 1045.68,2392.98 1043,2408.5C 1042.5,2423.5 1042.33,2438.5 1042.5,2453.5C 1014.17,2453.5 985.833,2453.5 957.5,2453.5C 957.333,2390.5 957.5,2327.5 958,2264.5C 970.384,2248.29 982.55,2231.96 994.5,2215.5 Z"/></g>
<g><path style="opacity:0.977" fill="#fefffe" d="M 680.5,2232.5 C 697.818,2232.96 702.818,2241.12 695.5,2257C 715.081,2271.91 731.914,2289.41 746,2309.5C 756.296,2328.89 764.129,2349.22 769.5,2370.5C 766.726,2378.05 763.393,2385.38 759.5,2392.5C 755.839,2393.45 752.172,2393.29 748.5,2392C 736.308,2388.94 724.308,2385.27 712.5,2381C 712.043,2380.59 711.709,2380.09 711.5,2379.5C 713.898,2372.07 715.898,2364.57 717.5,2357C 716.76,2350.25 713.093,2347.25 706.5,2348C 700.184,2354.79 695.517,2362.62 692.5,2371.5C 691.833,2371.83 691.167,2372.17 690.5,2372.5C 675.939,2366.89 661.606,2360.72 647.5,2354C 646.978,2353.44 646.645,2352.77 646.5,2352C 650.57,2344.12 653.236,2335.79 654.5,2327C 652.991,2317.41 647.991,2315.08 639.5,2320C 633.561,2326.04 628.727,2332.88 625,2340.5C 624.439,2341.02 623.772,2341.36 623,2341.5C 608.444,2334.14 594.277,2326.14 580.5,2317.5C 585.275,2309.28 588.942,2300.62 591.5,2291.5C 590.124,2286.31 586.791,2284.48 581.5,2286C 580.167,2286.67 578.833,2287.33 577.5,2288C 572.214,2294.07 567.048,2300.24 562,2306.5C 548.099,2297.98 535.265,2288.14 523.5,2277C 527.294,2269.91 530.961,2262.74 534.5,2255.5C 559.449,2244.05 585.616,2237.72 613,2236.5C 631.827,2236.83 650.327,2239.5 668.5,2244.5C 672.771,2240.9 676.771,2236.9 680.5,2232.5 Z"/></g>
<g><path style="opacity:0.947" fill="#fefffe" d="M 606.5,2371.5 C 615.297,2375.73 623.964,2380.23 632.5,2385C 617.19,2415.12 602.023,2445.29 587,2475.5C 578.564,2471.37 570.398,2466.87 562.5,2462C 577.268,2431.85 591.934,2401.69 606.5,2371.5 Z"/></g>
<g><path style="opacity:0.923" fill="#fefffe" d="M 153.5,2630.5 C 168.531,2630.03 174.031,2637.03 170,2651.5C 160.894,2661.03 152.561,2660.36 145,2649.5C 142.455,2640.6 145.288,2634.27 153.5,2630.5 Z"/></g>
<g><path style="opacity:0.959" fill="#fefffe" d="M 589.5,2643.5 C 653.978,2641.66 705.145,2666.66 743,2718.5C 753.587,2733.01 762.087,2748.67 768.5,2765.5C 768.116,2769.72 765.783,2772.22 761.5,2773C 759.5,2773.67 757.5,2773.67 755.5,2773C 743.707,2755.53 730.04,2739.53 714.5,2725C 682.331,2700.27 645.831,2687.44 605,2686.5C 588.269,2687.51 571.603,2689.17 555,2691.5C 544.142,2690.92 542.642,2686.75 550.5,2679C 554.327,2677.25 557.993,2675.25 561.5,2673C 563.272,2669.89 562.439,2668.06 559,2667.5C 553.242,2669.16 547.409,2669.99 541.5,2670C 537.174,2668.44 536.341,2665.61 539,2661.5C 548.038,2654.4 558.204,2649.57 569.5,2647C 576.289,2645.7 582.956,2644.54 589.5,2643.5 Z"/></g>
<g><path style="opacity:0.982" fill="#fefffe" d="M 1064.5,2643.5 C 1066.43,2644.64 1067.93,2646.31 1069,2648.5C 1110.75,2718.33 1152.25,2788.33 1193.5,2858.5C 1108.5,2859.83 1023.5,2859.83 938.5,2858.5C 980.775,2786.94 1022.78,2715.28 1064.5,2643.5 Z M 1060.5,2739.5 C 1078.28,2738.62 1088.61,2746.95 1091.5,2764.5C 1086.9,2785.97 1074.23,2793.13 1053.5,2786C 1041.63,2777.37 1038.46,2766.2 1044,2752.5C 1047.94,2746.05 1053.44,2741.71 1060.5,2739.5 Z"/></g>
<g><path style="opacity:0.965" fill="#fefffe" d="M 155.5,2674.5 C 207.641,2707.41 259.641,2740.57 311.5,2774C 334.086,2796.58 340.252,2823.08 330,2853.5C 313.026,2888.74 285.193,2902.9 246.5,2896C 228.196,2890.95 214.03,2880.45 204,2864.5C 164.5,2802.17 125,2739.83 85.5,2677.5C 121.22,2699.83 156.72,2723.16 192,2747.5C 179.874,2723.25 167.707,2698.91 155.5,2674.5 Z M 257.5,2784.5 C 282.652,2783.17 298.819,2794.5 306,2818.5C 308.821,2844.67 297.655,2861.5 272.5,2869C 242.602,2870.78 225.602,2856.78 221.5,2827C 223.683,2804.33 235.683,2790.16 257.5,2784.5 Z"/></g>
<g><path style="opacity:0.976" fill="#fefffe" d="M 591.5,2729.5 C 666.495,2730.05 719.995,2764.05 752,2831.5C 755.941,2839.72 759.608,2848.05 763,2856.5C 763.991,2858.45 764.325,2860.45 764,2862.5C 732.669,2878.83 699.336,2887.83 664,2889.5C 600.126,2886.08 552.459,2856.75 521,2801.5C 513.346,2787.19 506.513,2772.53 500.5,2757.5C 529.004,2742.11 559.337,2732.78 591.5,2729.5 Z M 625.5,2766.5 C 655.006,2765.92 671.673,2780.25 675.5,2809.5C 671.343,2838.5 654.676,2852.33 625.5,2851C 599.141,2843.78 587.641,2826.62 591,2799.5C 596.222,2781.77 607.722,2770.77 625.5,2766.5 Z"/></g>
<g><path style="opacity:0.912" fill="#fefffe" d="M 116.5,2793.5 C 130.314,2793.5 135.814,2800.17 133,2813.5C 126.062,2822.82 118.062,2823.82 109,2816.5C 104.031,2806.24 106.531,2798.58 116.5,2793.5 Z"/></g>
<g><path style="opacity:0.975" fill="#fefffe" d="M 1070.5,3040.5 C 1075.15,3041.24 1076.65,3043.91 1075,3048.5C 1068.21,3064.09 1062.54,3080.09 1058,3096.5C 1056.47,3102.3 1058.64,3105.13 1064.5,3105C 1065.67,3103.83 1066.83,3102.67 1068,3101.5C 1075.08,3087 1083.41,3073.33 1093,3060.5C 1095.2,3057.96 1097.7,3055.79 1100.5,3054C 1106.67,3052.17 1108.83,3054.33 1107,3060.5C 1099.59,3075.72 1095.26,3091.72 1094,3108.5C 1096.05,3110.79 1098.21,3110.95 1100.5,3109C 1107.43,3097.8 1115.1,3087.14 1123.5,3077C 1125.97,3074.9 1128.64,3074.4 1131.5,3075.5C 1132.02,3076.61 1132.36,3077.77 1132.5,3079C 1128.63,3090.3 1125.63,3101.8 1123.5,3113.5C 1145.67,3113.95 1166,3120.12 1184.5,3132C 1206.74,3153.06 1214.24,3178.56 1207,3208.5C 1203.3,3219.88 1196.8,3229.38 1187.5,3237C 1170.5,3248.66 1154.67,3261.83 1140,3276.5C 1132.01,3286.48 1125.01,3297.15 1119,3308.5C 1109.31,3322.52 1096.81,3333.35 1081.5,3341C 1041.29,3349.98 1011.79,3336.15 993,3299.5C 988.738,3289.05 985.071,3278.38 982,3267.5C 978.568,3258.42 973.901,3250.09 968,3242.5C 960.235,3233.31 952.235,3224.31 944,3215.5C 925.143,3185.67 924.809,3155.67 943,3125.5C 958.595,3106.62 978.762,3097.29 1003.5,3097.5C 1011.47,3097.81 1019.3,3098.81 1027,3100.5C 1036.49,3079.01 1049.32,3059.84 1065.5,3043C 1067.31,3042.24 1068.98,3041.41 1070.5,3040.5 Z M 994.5,3134.5 C 1017.13,3133.04 1031.63,3143.04 1038,3164.5C 1039.54,3190.95 1027.21,3205.95 1001,3209.5C 978.758,3207.09 966.258,3194.76 963.5,3172.5C 965.129,3152.55 975.463,3139.89 994.5,3134.5 Z M 1124.5,3147.5 C 1156.99,3150.18 1170.49,3167.51 1165,3199.5C 1155.71,3220.23 1139.88,3228.4 1117.5,3224C 1095.8,3215.43 1086.96,3199.6 1091,3176.5C 1096.53,3160.13 1107.69,3150.46 1124.5,3147.5 Z M 1057.5,3212.5 C 1062.19,3217.2 1065.35,3222.86 1067,3229.5C 1076.07,3256.77 1066.91,3265.27 1039.5,3255C 1033.91,3252.55 1032.08,3248.38 1034,3242.5C 1039.23,3230.32 1047.07,3220.32 1057.5,3212.5 Z"/></g>
<g><path style="opacity:0.968" fill="#fefffe" d="M 638.5,3058.5 C 651.598,3066.42 664.598,3074.58 677.5,3083C 697.508,3083.17 717.508,3083.67 737.5,3084.5C 739.816,3092.43 741.816,3100.43 743.5,3108.5C 674.167,3108.5 604.833,3108.5 535.5,3108.5C 537.184,3100.43 539.184,3092.43 541.5,3084.5C 561.492,3083.67 581.492,3083.17 601.5,3083C 614.242,3075.31 626.575,3067.14 638.5,3058.5 Z"/></g>
<g><path style="opacity:0.979" fill="#fefffe" d="M 211.5,3086.5 C 212.822,3086.33 213.989,3086.66 215,3087.5C 258.674,3138.88 269.34,3196.55 247,3260.5C 239.128,3280.28 227.795,3297.62 213,3312.5C 190.033,3289.57 175.7,3261.91 170,3229.5C 161.316,3175.08 175.149,3127.41 211.5,3086.5 Z"/></g>
<g><path style="opacity:0.935" fill="#fefffe" d="M 121.5,3102.5 C 134.52,3108.02 145.853,3116.02 155.5,3126.5C 151.796,3136.63 148.129,3146.63 144.5,3156.5C 134.656,3150.83 124.49,3145.83 114,3141.5C 114.381,3128.1 116.881,3115.1 121.5,3102.5 Z"/></g>
<g><path style="opacity:0.936" fill="#fefffe" d="M 301.5,3102.5 C 302.675,3102.28 303.675,3102.61 304.5,3103.5C 308.446,3115.56 311.112,3127.89 312.5,3140.5C 301.314,3145.59 290.314,3150.93 279.5,3156.5C 276.942,3146.01 274.109,3135.67 271,3125.5C 280.249,3116.48 290.416,3108.81 301.5,3102.5 Z"/></g>
<g><path style="opacity:0.985" fill="#fefffe" d="M 523.5,3135.5 C 600.833,3135.5 678.167,3135.5 755.5,3135.5C 753.986,3143.56 752.153,3151.56 750,3159.5C 749.5,3211.5 749.333,3263.5 749.5,3315.5C 726.167,3315.5 702.833,3315.5 679.5,3315.5C 679.978,3273.12 679.478,3230.79 678,3188.5C 671.157,3170.99 658.324,3161.66 639.5,3160.5C 620.676,3161.66 607.843,3170.99 601,3188.5C 599.522,3230.79 599.022,3273.12 599.5,3315.5C 576.167,3315.5 552.833,3315.5 529.5,3315.5C 529.667,3263.5 529.5,3211.5 529,3159.5C 526.847,3151.56 525.014,3143.56 523.5,3135.5 Z"/></g>
<g><path style="opacity:0.968" fill="#fefffe" d="M 78.5,3158.5 C 100.808,3163.54 121.308,3172.54 140,3185.5C 138.014,3231.86 150.347,3273.86 177,3311.5C 177.591,3312.48 177.257,3313.15 176,3313.5C 120.83,3303 88.4964,3270 79,3214.5C 75.9558,3195.83 75.7891,3177.16 78.5,3158.5 Z"/></g>
<g><path style="opacity:0.968" fill="#fefffe" d="M 345.5,3158.5 C 347.117,3159.59 347.95,3161.26 348,3163.5C 352.313,3198.93 345.979,3232.27 329,3263.5C 310.136,3291.78 283.802,3308.44 250,3313.5C 248.743,3313.15 248.409,3312.48 249,3311.5C 275.611,3273.73 287.611,3231.73 285,3185.5C 303.587,3172.79 323.754,3163.79 345.5,3158.5 Z"/></g>
<g><path style="opacity:0.98" fill="#fefffe" d="M 139.5,3488.5 C 145.345,3487.67 149.179,3490 151,3495.5C 151.291,3514.18 151.958,3532.85 153,3551.5C 163.333,3561.83 173.667,3572.17 184,3582.5C 184.5,3632.83 184.667,3683.17 184.5,3733.5C 156.833,3733.5 129.167,3733.5 101.5,3733.5C 101.333,3683.17 101.5,3632.83 102,3582.5C 112.333,3572.17 122.667,3561.83 133,3551.5C 133.277,3532.15 133.943,3512.82 135,3493.5C 136.025,3491.31 137.525,3489.65 139.5,3488.5 Z"/></g>
<g><path style="opacity:0.982" fill="#fefffe" d="M 210.5,3488.5 C 238.835,3488.33 267.169,3488.5 295.5,3489C 294.339,3514.43 294.172,3539.93 295,3565.5C 306.667,3577.17 318.333,3588.83 330,3600.5C 330.5,3644.83 330.667,3689.17 330.5,3733.5C 290.5,3733.5 250.5,3733.5 210.5,3733.5C 210.5,3651.83 210.5,3570.17 210.5,3488.5 Z M 232.5,3509.5 C 246.167,3509.5 259.833,3509.5 273.5,3509.5C 273.5,3523.17 273.5,3536.83 273.5,3550.5C 259.833,3550.5 246.167,3550.5 232.5,3550.5C 232.5,3536.83 232.5,3523.17 232.5,3509.5 Z"/></g>
<g><path style="opacity:0.982" fill="#fefffe" d="M 1061.5,3495.5 C 1062.5,3495.47 1063.16,3495.97 1063.5,3497C 1088.67,3565.01 1113.34,3633.18 1137.5,3701.5C 1066.83,3701.83 996.164,3701.5 925.5,3700.5C 971.102,3632.28 1016.44,3563.95 1061.5,3495.5 Z"/></g>
<g><path style="opacity:0.939" fill="#fefffe" d="M 1104.5,3530.5 C 1140.83,3586.86 1176.83,3643.53 1212.5,3700.5C 1196.94,3701.82 1181.44,3701.82 1166,3700.5C 1144.79,3644.05 1124.29,3587.38 1104.5,3530.5 Z"/></g>
<g><path style="opacity:0.979" fill="#fefffe" d="M 504.5,3540.5 C 507.32,3540.25 509.986,3540.75 512.5,3542C 536.349,3566.35 560.015,3590.85 583.5,3615.5C 623.08,3608.57 662.747,3602.07 702.5,3596C 734.092,3592.9 765.425,3594.57 796.5,3601C 797.516,3601.52 798.182,3602.35 798.5,3603.5C 800.323,3609.44 801.489,3615.44 802,3621.5C 789.818,3633.35 775.984,3642.85 760.5,3650C 732.183,3661.66 703.183,3671.33 673.5,3679C 667.106,3693.12 660.439,3707.12 653.5,3721C 629.747,3727.42 605.747,3732.42 581.5,3736C 579.556,3733.85 579.056,3731.35 580,3728.5C 583.526,3715.75 586.359,3703.09 588.5,3690.5C 572.578,3693.16 556.578,3694.99 540.5,3696C 538.287,3689.32 536.621,3682.48 535.5,3675.5C 523.267,3677.52 511.267,3676.69 499.5,3673C 497.697,3672.36 496.364,3671.2 495.5,3669.5C 502.473,3658.49 512.473,3651.66 525.5,3649C 526.516,3648.48 527.182,3647.65 527.5,3646.5C 519.333,3613.83 511.167,3581.17 503,3548.5C 502.282,3545.59 502.782,3542.93 504.5,3540.5 Z"/></g>
<g><path style="opacity:0.951" fill="#fefffe" d="M 628.5,3544.5 C 653.328,3541.92 672.328,3551.08 685.5,3572C 653.897,3577.6 622.231,3582.77 590.5,3587.5C 594.727,3565.61 607.393,3551.28 628.5,3544.5 Z"/></g>
</svg>
