<?xml version="1.0" encoding="UTF-8"?>
<!DOCTYPE svg PUBLIC "-//W3C//DTD SVG 1.1//EN" "http://www.w3.org/Graphics/SVG/1.1/DTD/svg11.dtd">
<svg xmlns="http://www.w3.org/2000/svg" version="1.1" width="126px" height="150px" style="shape-rendering:geometricPrecision; text-rendering:geometricPrecision; image-rendering:optimizeQuality; fill-rule:evenodd; clip-rule:evenodd" xmlns:xlink="http://www.w3.org/1999/xlink">
<g><path style="opacity:0.93" fill="#940000" d="M 108.5,79.5 C 103.904,76.4242 98.904,74.0909 93.5,72.5C 98.2693,64.602 98.1026,56.9353 93,49.5C 89.8689,45.3672 86.3689,41.5338 82.5,38C 78.2684,35.7006 73.7684,34.2006 69,33.5C 64.6667,33.5 60.3333,33.5 56,33.5C 41.3923,36.7723 31.8923,45.6056 27.5,60C 28.4543,64.3272 29.7876,68.4939 31.5,72.5C 26.096,74.0909 21.096,76.4242 16.5,79.5C 15.6468,67.5956 16.8134,55.9289 20,44.5C 23.9673,34.7997 30.8006,27.9664 40.5,24C 57.6182,17.4451 74.2849,18.4451 90.5,27C 100.497,33.8061 106.33,43.3061 108,55.5C 108.5,63.4931 108.666,71.4931 108.5,79.5 Z"/></g>
<g><path style="opacity:0.952" fill="#7a0000" d="M 27.5,117.5 C 25.7354,116.539 23.7354,116.205 21.5,116.5C 17.9898,115.494 15.1565,113.494 13,110.5C 9.23087,101.584 8.89754,92.5836 12,83.5C 12.7475,81.249 14.2475,79.9156 16.5,79.5C 21.096,76.4242 26.096,74.0909 31.5,72.5C 33.0418,71.6993 34.7085,71.366 36.5,71.5C 35.3095,81.8335 35.3095,92.1668 36.5,102.5C 36.3778,106.878 35.8778,111.211 35,115.5C 32.8938,117.291 30.3938,117.958 27.5,117.5 Z"/></g>
<g><path style="opacity:0.95" fill="#7a0000" d="M 93.5,72.5 C 98.904,74.0909 103.904,76.4242 108.5,79.5C 110.752,79.9156 112.252,81.249 113,83.5C 116.102,92.5836 115.769,101.584 112,110.5C 107.413,115.596 101.58,117.929 94.5,117.5C 93.1667,117.167 91.8333,116.833 90.5,116.5C 89.1848,111.94 88.5181,107.273 88.5,102.5C 89.6905,92.1668 89.6905,81.8335 88.5,71.5C 90.2915,71.366 91.9582,71.6993 93.5,72.5 Z"/></g>
<g><path style="opacity:0.868" fill="#b50000" d="M 21.5,116.5 C 23.7354,116.205 25.7354,116.539 27.5,117.5C 27.5,118.5 27.5,119.5 27.5,120.5C 30.8254,120.831 34.1587,121.164 37.5,121.5C 41.4531,120.717 45.1198,119.217 48.5,117C 55.276,116.08 61.9427,116.414 68.5,118C 73.3452,124.572 72.0119,129.572 64.5,133C 58.1424,134.883 51.8091,134.883 45.5,133C 43.3651,132.241 42.0318,130.741 41.5,128.5C 35.1753,127.612 28.842,126.778 22.5,126C 21.5495,122.943 21.2161,119.777 21.5,116.5 Z"/></g>
</svg>
